<svg fill="none" height="326" viewBox="0 0 269 326" width="269" xmlns="http://www.w3.org/2000/svg" xmlns:xlink="http://www.w3.org/1999/xlink"><linearGradient id="a" gradientUnits="userSpaceOnUse" x1="133.742" x2="133.742" y1="28" y2="270.361"><stop offset=".401042" stop-color="#162328"/><stop offset="1" stop-color="#051942"/></linearGradient><linearGradient id="b" gradientUnits="userSpaceOnUse" x1="142.728" x2="142.728" y1="46.4346" y2="291.411"><stop offset=".484375" stop-color="#e5fc3a"/><stop offset="1" stop-color="#b8f706"/></linearGradient><linearGradient id="c"><stop offset="0" stop-color="#ffbe61"/><stop offset="1" stop-color="#c78153"/></linearGradient><linearGradient id="d" gradientUnits="userSpaceOnUse" x1="146.705" x2="184.442" xlink:href="#c" y1="49.4068" y2="49.4068"/><linearGradient id="e"><stop offset="0" stop-color="#fff"/><stop offset="1" stop-color="#7bffff"/></linearGradient><linearGradient id="f" gradientUnits="userSpaceOnUse" x1="177.211" x2="182.468" xlink:href="#e" y1="248.405" y2="248.405"/><linearGradient id="g" gradientUnits="userSpaceOnUse" x1="175.508" x2="181.865" xlink:href="#e" y1="98.3942" y2="98.3942"/><linearGradient id="h"><stop offset="0" stop-color="#002a7f"/><stop offset=".0447" stop-color="#003b7d"/><stop offset="1" stop-color="#00626a"/></linearGradient><linearGradient id="i" gradientUnits="userSpaceOnUse" x1="132.875" x2="181.907" xlink:href="#h" y1="156.915" y2="156.915"/><linearGradient id="j" gradientUnits="userSpaceOnUse" x1="154.774" x2="181.581" xlink:href="#h" y1="162.894" y2="162.894"/><linearGradient id="k"><stop offset="0" stop-color="#b32100"/><stop offset="1" stop-color="#ff3948"/></linearGradient><linearGradient id="l" gradientUnits="userSpaceOnUse" x1="169.087" x2="181.655" xlink:href="#k" y1="247.69" y2="247.69"/><linearGradient id="m" gradientUnits="userSpaceOnUse" x1="167.34" x2="180.971" xlink:href="#e" y1="262.16" y2="262.16"/><linearGradient id="n" gradientUnits="userSpaceOnUse" x1="170.909" x2="180.509" xlink:href="#c" y1="207.599" y2="207.599"/><linearGradient id="o" gradientUnits="userSpaceOnUse" x1="172.328" x2="181.238" xlink:href="#e" y1="231.452" y2="231.452"/><linearGradient id="p" gradientUnits="userSpaceOnUse" x1="172.745" x2="179.042" xlink:href="#e" y1="118.98" y2="118.98"/><linearGradient id="q"><stop offset="0" stop-color="#e68b4a"/><stop offset="1" stop-color="#ab6440"/></linearGradient><linearGradient id="r" gradientUnits="userSpaceOnUse" x1="148.919" x2="178.575" xlink:href="#q" y1="53.6665" y2="53.6665"/><linearGradient id="s" gradientUnits="userSpaceOnUse" x1="134.135" x2="176.84" xlink:href="#k" y1="100.835" y2="100.835"/><linearGradient id="t" gradientUnits="userSpaceOnUse" x1="164.602" x2="176.478" xlink:href="#q" y1="205.999" y2="205.999"/><linearGradient id="u" gradientUnits="userSpaceOnUse" x1="170.173" x2="173.575" xlink:href="#h" y1="63.9213" y2="63.9213"/><linearGradient id="v" gradientUnits="userSpaceOnUse" x1="166.76" x2="173.204" xlink:href="#e" y1="249.983" y2="249.983"/><linearGradient id="w" gradientUnits="userSpaceOnUse" x1="154.104" x2="172.769" xlink:href="#c" y1="63.0585" y2="63.0585"/><linearGradient id="x"><stop offset="0" stop-color="#ff7222"/><stop offset="1" stop-color="#ff3948"/></linearGradient><linearGradient id="y" gradientUnits="userSpaceOnUse" x1="134.887" x2="170.585" xlink:href="#x" y1="100.134" y2="100.134"/><linearGradient id="z"><stop offset="0" stop-color="#002a7f"/><stop offset="1" stop-color="#00626a"/></linearGradient><linearGradient id="A" gradientUnits="userSpaceOnUse" x1="163.798" x2="168.491" xlink:href="#z" y1="49.6572" y2="49.6572"/><linearGradient id="B" gradientUnits="userSpaceOnUse" x1="154.783" x2="166.207" xlink:href="#q" y1="72.0284" y2="72.0284"/><linearGradient id="C" gradientUnits="userSpaceOnUse" x1="130.88" x2="156.201" xlink:href="#x" y1="13.4947" y2="13.4947"/><linearGradient id="D" gradientUnits="userSpaceOnUse" x1="127.152" x2="153.936" xlink:href="#c" y1="50.5152" y2="50.5152"/><linearGradient id="E" gradientUnits="userSpaceOnUse" x1="141.351" x2="151.708" xlink:href="#e" y1="78.3103" y2="78.3103"/><linearGradient id="F" gradientUnits="userSpaceOnUse" x1="139.01" x2="148.462" xlink:href="#c" y1="204.536" y2="204.536"/><linearGradient id="G" gradientUnits="userSpaceOnUse" x1="129.009" x2="146.245" xlink:href="#k" y1="244.565" y2="244.565"/><linearGradient id="H" gradientUnits="userSpaceOnUse" x1="135.344" x2="144.664" xlink:href="#e" y1="229.164" y2="229.164"/><linearGradient id="I" gradientUnits="userSpaceOnUse" x1="138.31" x2="143.928" xlink:href="#e" y1="244.372" y2="244.372"/><linearGradient id="J" gradientUnits="userSpaceOnUse" x1="122.116" x2="143.379" xlink:href="#q" y1="57.3758" y2="57.3758"/><linearGradient id="K" gradientUnits="userSpaceOnUse" x1="133.766" x2="141.789" xlink:href="#e" y1="107.753" y2="107.753"/><linearGradient id="L" gradientUnits="userSpaceOnUse" x1="129.956" x2="141.142" xlink:href="#e" y1="258.5" y2="258.5"/><linearGradient id="M" gradientUnits="userSpaceOnUse" x1="132.927" x2="141.818" xlink:href="#q" y1="204.712" y2="204.712"/><linearGradient id="N" gradientUnits="userSpaceOnUse" x1="130.466" x2="139.308" xlink:href="#h" y1="145.515" y2="145.515"/><linearGradient id="O" gradientUnits="userSpaceOnUse" x1="130.596" x2="134.802" xlink:href="#h" y1="173.247" y2="173.247"/><linearGradient id="P" gradientUnits="userSpaceOnUse" x1="169.327" x2="183.046" xlink:href="#e" y1="293.887" y2="293.887"/><linearGradient id="Q" gradientUnits="userSpaceOnUse" x1="163.313" x2="182.377" xlink:href="#k" y1="283.461" y2="283.461"/><linearGradient id="R" gradientUnits="userSpaceOnUse" x1="164.13" x2="177.732" xlink:href="#h" y1="280.05" y2="280.05"/><linearGradient id="S" gradientUnits="userSpaceOnUse" x1="156.088" x2="174.817" xlink:href="#e" y1="268.9" y2="268.9"/><linearGradient id="T"><stop offset="0" stop-color="#ff8d70"/><stop offset="1" stop-color="#ffb27b"/></linearGradient><linearGradient id="U" gradientUnits="userSpaceOnUse" x1="142.766" x2="165.104" xlink:href="#T" y1="242.206" y2="242.206"/><linearGradient id="V"><stop offset="0" stop-color="#ffb27b"/><stop offset="1" stop-color="#fce3d0"/></linearGradient><linearGradient id="W" gradientUnits="userSpaceOnUse" x1="133.94" x2="161.894" xlink:href="#V" y1="244.348" y2="244.348"/><linearGradient id="X"><stop offset="0" stop-color="#00bf79"/><stop offset="1" stop-color="#00c5b8"/></linearGradient><linearGradient id="Y" gradientUnits="userSpaceOnUse" x1="67.5411" x2="147.469" xlink:href="#X" y1="201.609" y2="201.609"/><linearGradient id="Z" gradientUnits="userSpaceOnUse" x1="84.6888" x2="127.142" xlink:href="#k" y1="149.125" y2="149.125"/><linearGradient id="aa" gradientUnits="userSpaceOnUse" x1="82.3103" x2="105.968" y1="209.733" y2="209.733"><stop offset="0" stop-color="#00697e"/><stop offset="1" stop-color="#00c5b8"/></linearGradient><linearGradient id="ab" gradientUnits="userSpaceOnUse" x1="73.3753" x2="102.929" y1="148.546" y2="148.546"><stop offset="0" stop-color="#ff3948"/><stop offset="1" stop-color="#ff7222"/></linearGradient><linearGradient id="ac" gradientUnits="userSpaceOnUse" x1="87.8359" x2="92.7194" y1="219.749" y2="219.749"><stop offset="0" stop-color="#002a7f"/><stop offset="1" stop-color="#00c5b8"/></linearGradient><linearGradient id="ad" gradientUnits="userSpaceOnUse" x1="56.1203" x2="90.1239" xlink:href="#T" y1="241.164" y2="241.164"/><linearGradient id="ae" gradientUnits="userSpaceOnUse" x1="61.8811" x2="89.8844" xlink:href="#k" y1="124.526" y2="124.526"/><linearGradient id="af" gradientUnits="userSpaceOnUse" x1="38.7525" x2="84.4355" xlink:href="#T" y1="159.029" y2="159.029"/><linearGradient id="ag" gradientUnits="userSpaceOnUse" x1="48.9397" x2="81.8039" xlink:href="#V" y1="154.656" y2="154.656"/><linearGradient id="ah" gradientUnits="userSpaceOnUse" x1="75.5683" x2="80.8995" xlink:href="#T" y1="111.172" y2="111.172"/><linearGradient id="ai" gradientUnits="userSpaceOnUse" x1="50.0088" x2="78.1707" xlink:href="#z" y1="100.894" y2="100.894"/><linearGradient id="aj" gradientUnits="userSpaceOnUse" x1="55.8798" x2="77.2301" xlink:href="#V" y1="109.8" y2="109.8"/><linearGradient id="ak" gradientUnits="userSpaceOnUse" x1="50.9475" x2="78.7926" xlink:href="#V" y1="239.703" y2="239.703"/><linearGradient id="al" gradientUnits="userSpaceOnUse" x1="63.8978" x2="72.0007" xlink:href="#k" y1="134.377" y2="134.377"/><linearGradient id="am" gradientUnits="userSpaceOnUse" x1="1" x2="71.0151" xlink:href="#V" y1="134.166" y2="134.166"/><linearGradient id="an" gradientUnits="userSpaceOnUse" x1="52.9552" x2="62.3333" xlink:href="#e" y1="281.056" y2="281.056"/><linearGradient id="ao" gradientUnits="userSpaceOnUse" x1="30.8437" x2="58.8907" xlink:href="#k" y1="286.721" y2="286.721"/><linearGradient id="ap" gradientUnits="userSpaceOnUse" x1="50.7304" x2="56.1204" xlink:href="#e" y1="275.484" y2="275.484"/><linearGradient id="aq" gradientUnits="userSpaceOnUse" x1="26.5551" x2="52.0869" xlink:href="#e" y1="286.805" y2="286.805"/><linearGradient id="ar" gradientUnits="userSpaceOnUse" x1="32.6433" x2="51.3181" xlink:href="#h" y1="275.328" y2="275.328"/><linearGradient id="as" gradientUnits="userSpaceOnUse" x1="45.116" x2="49.0276" xlink:href="#x" y1="159.647" y2="159.647"/><linearGradient id="at" gradientUnits="userSpaceOnUse" x1="43.152" x2="48.7228" xlink:href="#h" y1="157.998" y2="157.998"/><linearGradient id="au" gradientUnits="userSpaceOnUse" x1="45.4038" x2="45.6344" xlink:href="#x" y1="161.34" y2="161.34"/><linearGradient id="av" gradientUnits="userSpaceOnUse" x1="26.0144" x2="43.613" xlink:href="#h" y1="147.019" y2="147.019"/><linearGradient id="aw" gradientUnits="userSpaceOnUse" x1="14.4165" x2="34.5697" xlink:href="#h" y1="122.092" y2="122.092"/><linearGradient id="ax" gradientUnits="userSpaceOnUse" x1="13.0502" x2="72.2574" xlink:href="#T" y1="142.199" y2="142.199"/><linearGradient id="ay"><stop offset="0" stop-color="#525555"/><stop offset="1" stop-color="#6f7877"/></linearGradient><linearGradient id="az" gradientUnits="userSpaceOnUse" x1="197.632" x2="212.099" xlink:href="#ay" y1="211.022" y2="211.022"/><linearGradient id="aA" gradientUnits="userSpaceOnUse" x1="235.705" x2="262.788" xlink:href="#h" y1="215.015" y2="215.015"/><linearGradient id="aB" gradientUnits="userSpaceOnUse" x1="206.956" x2="240.014" xlink:href="#T" y1="277.228" y2="277.228"/><linearGradient id="aC" gradientUnits="userSpaceOnUse" x1="223.882" x2="235.228" xlink:href="#e" y1="307.787" y2="307.787"/><linearGradient id="aD" gradientUnits="userSpaceOnUse" x1="207.27" x2="234.677" xlink:href="#h" y1="302.738" y2="302.738"/><linearGradient id="aE" gradientUnits="userSpaceOnUse" x1="210.297" x2="232.775" xlink:href="#V" y1="214.692" y2="214.692"/><linearGradient id="aF" gradientUnits="userSpaceOnUse" x1="223.139" x2="231.336" xlink:href="#V" y1="221.903" y2="221.903"/><linearGradient id="aG" gradientUnits="userSpaceOnUse" x1="208.013" x2="229.963" xlink:href="#z" y1="196.829" y2="196.829"/><linearGradient id="aH" gradientUnits="userSpaceOnUse" x1="209.621" x2="230.878" xlink:href="#V" y1="283.702" y2="283.702"/><linearGradient id="aI" gradientUnits="userSpaceOnUse" x1="217.528" x2="225.719" xlink:href="#T" y1="214.257" y2="214.257"/><linearGradient id="aJ" gradientUnits="userSpaceOnUse" x1="221.797" x2="225.195" xlink:href="#V" y1="217.87" y2="217.87"/><linearGradient id="aK" gradientUnits="userSpaceOnUse" x1="187.152" x2="223.669" xlink:href="#x" y1="234.896" y2="234.896"/><linearGradient id="aL" gradientUnits="userSpaceOnUse" x1="205.97" x2="216.456" xlink:href="#e" y1="306.9" y2="306.9"/><linearGradient id="aM" gradientUnits="userSpaceOnUse" x1="175.18" x2="216.38" xlink:href="#V" y1="280.2" y2="280.2"/><linearGradient id="aN" gradientUnits="userSpaceOnUse" x1="195.262" x2="213.401" xlink:href="#z" y1="191.336" y2="191.336"/><linearGradient id="aO" gradientUnits="userSpaceOnUse" x1="185.623" x2="209.641" xlink:href="#V" y1="229.44" y2="229.44"/><linearGradient id="aP" gradientUnits="userSpaceOnUse" x1="188.212" x2="208.041" xlink:href="#e" y1="317.586" y2="317.586"/><linearGradient id="aQ" gradientUnits="userSpaceOnUse" x1="169.571" x2="207.766" xlink:href="#k" y1="245.555" y2="245.555"/><linearGradient id="aR" gradientUnits="userSpaceOnUse" x1="177.721" x2="205.747" xlink:href="#h" y1="310.363" y2="310.363"/><linearGradient id="aS" gradientUnits="userSpaceOnUse" x1="171.876" x2="204.414" xlink:href="#T" y1="271.564" y2="271.564"/><linearGradient id="aT" gradientUnits="userSpaceOnUse" x1="194.066" x2="202.491" xlink:href="#T" y1="232.131" y2="232.131"/><linearGradient id="aU" gradientUnits="userSpaceOnUse" x1="176.248" x2="201.28" xlink:href="#V" y1="228.039" y2="228.039"/><linearGradient id="aV" gradientUnits="userSpaceOnUse" x1="191.474" x2="199.437" xlink:href="#T" y1="210.394" y2="210.394"/><linearGradient id="aW" gradientUnits="userSpaceOnUse" x1="175.672" x2="193.6" xlink:href="#T" y1="232.082" y2="232.082"/><linearGradient id="aX" gradientUnits="userSpaceOnUse" x1="176.321" x2="182.557" xlink:href="#e" y1="315.101" y2="315.101"/><linearGradient id="aY" gradientUnits="userSpaceOnUse" x1="165.95" x2="182.034" xlink:href="#X" y1="266.537" y2="266.537"/><linearGradient id="aZ" gradientUnits="userSpaceOnUse" x1="145.031" x2="177.502" xlink:href="#h" y1="211.215" y2="211.215"/><linearGradient id="a0" gradientUnits="userSpaceOnUse" x1="132.556" x2="163.55" xlink:href="#ay" y1="209.825" y2="209.825"/><linearGradient id="a1" gradientUnits="userSpaceOnUse" x1="264.763" x2="268" xlink:href="#ay" y1="214.21" y2="214.21"/><linearGradient id="a2" gradientUnits="userSpaceOnUse" x1="229.199" x2="248.372" xlink:href="#ay" y1="213.086" y2="213.086"/><linearGradient id="a3" gradientUnits="userSpaceOnUse" x1="180.049" x2="194.785" xlink:href="#ay" y1="210.597" y2="210.597"/><linearGradient id="a4"><stop offset="0" stop-color="#00336c"/><stop offset="1" stop-color="#6f7877"/></linearGradient><linearGradient id="a5" gradientUnits="userSpaceOnUse" x1="250.35" x2="265.039" xlink:href="#a4" y1="215.012" y2="215.012"/><linearGradient id="a6" gradientUnits="userSpaceOnUse" x1="162.58" x2="180.211" xlink:href="#a4" y1="211.212" y2="211.212"/><linearGradient id="a7" gradientUnits="userSpaceOnUse" x1="131.454" x2="134.126" xlink:href="#a4" y1="209.549" y2="209.549"/><clipPath id="a8"><path d="m1 0h267v320h-267z"/></clipPath><path d="m267.46 201.276c-.35 21.192-5.773 44.515-23.185 56.661-10.686 7.454-24.168 9.456-37.139 10.686-65.267 6.174-135.0144-3.212-187.3701-42.573-9.182-6.904-18.30393-15.719-19.607058-27.115-.942262-8.235 2.445868-16.36 6.505618-23.604 7.94904-14.207 18.67484-26.674 29.85164-38.521 27.1953-28.786 57.6183-54.5302 90.5069-76.6025 12.33-8.2746 21.977-14.5861 35.477-22.9867 13.5-8.4007 23.796-10.6519 32.777-8.4007 10.946 2.7415 18.033 13.0172 23.757 22.7326 27.005 45.7854 49.288 96.6033 48.426 149.7233z" fill="url(#a)"/><ellipse cx="138" cy="312" fill="#3244e2" rx="126" ry="14"/><path d="m258.143 184.075c-15.106 22.722-35.756 41.252-57.508 57.762-22.544 17.109-46.752 32.438-73.356 42.103-18.735 6.814-39.6753 10.666-58.4804 4.032-19.4768-6.854-33.8212-24.233-41.4595-43.384-7.6384-19.141-9.4026-40.072-10.2446-60.664-1.5137-36.94-.3408-74.001 3.5284-110.771.0903-.8105.1705-1.6309.2607-2.4414 1.1828-10.5258 8.5705-19.4708 18.8151-22.2223.802-.2101 1.5538-.3702 2.2554-.4603 75.4109-9.2451 152.2159 22.5325 207.9189 74.081 8.4 7.774 16.801 16.739 18.715 28.026 2.025 11.966-3.729 23.843-10.445 33.939z" fill="url(#b)"/><g clip-path="url(#a8)"><path d="m184.275 76.0792c-.703 5.8127-3.783 11.413-3.158 17.2145-1.529 0-2.958-.939-3.906-2.2021-.402-3.89.312-7.8024.747-11.6925.503-4.6166.603-9.2667.614-13.9057.023-4.7061-.056-9.5015-1.652-13.9169-2.153-5.9916-6.83-10.6753-9.821-16.2868-1.674-3.1522-2.801-6.584-4.375-9.7809-.223-.4584-.446-.9055-.691-1.3526-1.965-3.5882-4.933-6.9082-8.895-7.903l-.045.0558c-2.265-1.6879-4.408-3.5323-6.395-5.5332 3.527.2348 6.618 2.3698 9.498 4.4042-2.467-2.3698-4.699-4.9966-6.674-7.80238 1.64.49184 3.214 1.19607 4.687 2.10151-.736-1.31904-1.462-2.62689-2.198-3.94593 1.395.13414 2.689.73777 3.816 1.59849 1.005.78248 1.864 1.76617 2.556 2.83928 1.44 2.26923 2.21 4.88493 3.125 7.41123.926 2.5486 2.009 5.0302 3.259 7.4223 2.065 4.0018 4.564 7.7801 7.455 11.2453 2.377 2.8505 5.067 5.5668 6.473 8.9985.614 1.4868.971 3.0741 1.328 4.639.904 3.9683 1.797 7.9366 2.69 11.9049 1.071 4.7619 2.142 9.6356 1.562 14.487z" fill="url(#d)"/><path d="m182.233 244.223c-.235 4.102.279 8.204.234 12.296-.011 1.844-.234 3.867-1.495 5.164-.369-.101-.748-.212-1.116-.313-.871-.257-1.764-.514-2.645-.727 1.73-2.682 3.247-5.577 3.091-8.707-.1-1.957-.859-3.857-.759-5.813.101-1.878.949-3.611 1.54-5.399.603-1.778.915-3.834-.033-5.455l.279-.112c0-.022-.011-.034-.011-.045 1.629 2.616 1.093 6.014.915 9.111z" fill="url(#f)"/><path d="m181.117 93.2937h.156l.324.19c.424 1.7215.357 3.5547-.201 5.2314-.547 1.6879-1.574 3.1859-2.065 4.8959-.391 1.33-.424 2.728-.413 4.114l-2.076.033c0-.089-.011-.167-.011-.257-.067-1.878-.926-3.644-1.205-5.499-.369-2.4485.256-4.9189.591-7.3781.246-1.8221.29-3.7782-.301-5.4773l.234-.0895c.19.5366.424 1.0396.726 1.5203.1.1676.223.3465.346.5142.926 1.2519 2.354 2.2021 3.895 2.2021z" fill="url(#g)"/><path d="m141.821 185.335c-2.366.302-4.709.649-7.02.425-.011-4.706-.022-9.434-.513-14.129-.391-3.622-1.071-7.288-1.317-10.91-.212-2.973-.123-5.936.636-8.809 1.139-4.337 3.761-8.16 4.955-12.486.759-2.727.938-5.611.514-8.406 4.14.38 8.415-.581 12.533-1.52 5.145-1.185 10.569-2.314 15.613-.749 1.641.503 3.203 1.297 4.922 1.464.391.034.77.045 1.161.023.692-.034 1.383-.19 2.031-.436.1-.034.178-.067.279-.112l.368.034c2.366 2.872 2.746 6.885 2.433 10.585-.29 3.7-1.183 7.367-.949 11.078.19 3.018 1.116 5.936 1.462 8.943.503 4.437-.256 9.065 1.128 13.324.424 1.342 1.071 2.616 1.45 3.968.525 1.834.547 3.79.09 5.645-.949.235-1.741.906-2.612 1.375-.937.503-2.176.749-2.968.034-.469-.414-.648-1.051-.927-1.599-.77-1.609-2.444-2.738-4.23-2.839-.904-.045-1.953.09-2.566-.57-.681-.749-.313-1.956.189-2.839.692-1.23 1.563-2.359 2.567-3.342.547-.548 1.161-1.062 1.496-1.767.346-.693.323-1.654-.29-2.135-.581-.48-1.585-.447-1.909-1.14-.212-.458.022-1.006.246-1.464.814-1.621 1.629-3.242 2.433-4.863.178-.357.368-.738.323-1.14-.067-.682-.781-1.14-1.462-1.196-.681-.045-1.339.201-1.997.38-.916.246-1.853.38-2.802.391-.435 0-.971-.078-1.138-.492-.134-.324.056-.693.234-1.006 1.786-2.984 3.572-5.969 5.346-8.953.402-.671.614-1.8-.134-1.979-.301-.067-.614.101-.87.246-1.384.827-2.712 1.733-3.973 2.727-.257.191-.525.403-.849.448-.959.111-1.361-1.208-1.305-2.18.223-4.058 1.908-8.082 1.127-12.084-1.942.19-3.013 2.292-3.728 4.114-1.785 4.583-3.426 9.233-5.078 13.872-.759 2.146-1.529 4.304-1.953 6.539-.056.291-.1.57-.145.861-.402 2.739-.223 5.544-.87 8.238-.413 1.699-1.139 3.298-1.507 5.008-.368 1.755-.357 3.6.078 5.343.246 1.006.614 2.158.034 3.03-.748 1.151-2.456.916-3.828.749-.034 0-.045-.012-.078-.012-2.188-.245-4.42.023-6.63.313z" fill="url(#i)"/><path d="m176.731 187.717c-.748.313-1.507.536-2.299.659-1.094.168-2.21.157-3.293-.045-1.975-.346-3.839-1.263-5.278-2.638-.402-.391-.782-.816-1.228-1.162-.167-.123-.335-.235-.513-.347-1.139-.637-2.634-.547-3.594-1.431-1.205-1.106-.893-3.029-.871-4.683.09-5.679-4.397-10.687-4.865-16.253.424-2.236 1.194-4.393 1.953-6.54 1.651-4.639 3.303-9.289 5.078-13.872.714-1.822 1.785-3.923 3.727-4.113.781 3.99-.904 8.014-1.127 12.083-.056.973.346 2.303 1.306 2.18.323-.045.591-.257.848-.447 1.261-.995 2.589-1.9 3.973-2.728.268-.156.569-.313.87-.246.748.179.536 1.319.134 1.979-1.785 2.985-3.571 5.969-5.345 8.954-.179.302-.369.682-.235 1.006.168.413.692.492 1.139.492.937-.012 1.886-.146 2.801-.392.658-.178 1.317-.424 1.997-.38.681.045 1.396.503 1.462 1.196.045.403-.145.783-.323 1.141-.815 1.62-1.63 3.241-2.433 4.862-.223.458-.458 1.006-.246 1.464.324.682 1.328.66 1.909 1.141.614.492.625 1.442.29 2.135-.335.704-.938 1.218-1.496 1.766-1.004.995-1.874 2.113-2.566 3.342-.503.883-.871 2.091-.19 2.839.614.66 1.663.526 2.567.571 1.785.1 3.459 1.229 4.229 2.839.28.548.458 1.196.927 1.598.792.705 2.042.47 2.968-.033.871-.47 1.652-1.14 2.612-1.375-.045.168-.089.335-.145.503-1.15 1.733-2.824 3.141-4.743 3.935z" fill="url(#j)"/><path d="m181.329 235.123c0 .023.011.034.011.045l-.279.112c.938 1.621.625 3.678.034 5.455-.592 1.789-1.451 3.521-1.541 5.399-.1 1.956.67 3.857.759 5.813.157 3.13-1.361 6.025-3.091 8.708-1.239-.302-2.489-.526-3.761-.57-1.362-.045-2.768.123-4.04.614l-.034-.1c-.904-3.119.48-6.383 1.808-9.334s2.668-6.26 1.674-9.356c-.413-1.297-1.227-2.504-1.562-3.801.112-1.252.357-2.448 1.027-3.409l.435.123c2.611 1.33 5.859 1.308 8.471-.034.022.101.044.213.089.335z" fill="url(#l)"/><path d="m177.211 260.655c.881.212 1.774.469 2.645.726.368.101.747.213 1.116.313-.078.101-.168.179-.279.268-.715.604-1.63.917-2.511 1.197-1.641.525-3.315 1.017-5.034 1.084-1.718.078-3.515-.291-4.866-1.364-.357-.291-.68-.615-.937-1.006.614-.514 1.328-.905 2.076-1.185 1.261-.492 2.678-.659 4.04-.615 1.261.056 2.511.28 3.75.582z" fill="url(#m)"/><path d="m180.38 202.159c.19 1.688.134 3.387.045 5.075-.324 6.651-.949 13.391-.424 19.998-1.217.19-2.444.279-3.672.246.424-5.914-.089-11.883-1.473-17.64-1.719-7.131-4.821-14.285-3.728-21.495 1.083.201 2.199.223 3.293.044.792-.123 1.551-.346 2.299-.659.848 3.13 1.707 6.248 2.555 9.367.458 1.666.915 3.342 1.105 5.064z" fill="url(#n)"/><path d="m176.34 227.466c1.228.034 2.455-.056 3.672-.246.201 2.549.58 5.064 1.227 7.557-2.611 1.341-5.859 1.364-8.47.033l-.436-.123c.179-.257.38-.491.614-.704h.101c0-2.302-.145-4.594-.435-6.874 1.227.234 2.466.357 3.727.357z" fill="url(#o)"/><path d="m179.03 114.208c.033 1.263.045 2.56-.368 3.756-.447 1.286-1.384 2.37-1.786 3.667-.614 1.922.011 4.002-.078 6.014-.023.547-.112 1.14-.48 1.542-.19.224-.447.38-.714.492-.101.045-.179.089-.279.112-.648.246-1.328.402-2.032.436.19-.492.57-.939.815-1.431.603-1.196.38-2.649-.056-3.924-.424-1.274-1.06-2.492-1.25-3.823-.68-4.661 4.029-8.663 4.029-13.324l2.076-.034c0 .291 0 .582.011.872.045 1.889.078 3.767.112 5.645z" fill="url(#p)"/><path d="m173.572 65.4822c-.1-.6931-.245-1.3973-.424-2.068-.234-.9166-.535-1.8109-.859-2.694-.904-2.4592-2.098-4.829-3.158-7.2211-.224-.4919-.436-.9949-.637-1.4979-.669-1.5426-1.272-3.1076-1.852-4.6949-1.685-4.5495-3.092-9.1997-4.475-13.8498-.38-1.2632-.815-2.6269-1.864-3.4541-.536-.4248-1.194-.6707-1.775-1.062-2.254-1.5314-2.488-4.7954-4.207-6.9305-.123-.1565-.246-.2906-.38-.4247-.613-.6484-1.383-1.1961-2.109-1.7439-1.194-.883-2.355-1.7885-2.902-3.1299 2.199-.0559 4.409.3466 6.44 1.1849-.77-.5142-1.518-1.0507-2.266-1.5985l.045-.0559c3.962 1.0061 6.931 4.3149 8.895 7.9031.245.4471.48.8942.692 1.3525 1.573 3.2082 2.689 6.6287 4.375 9.781 2.991 5.6115 7.667 10.2952 9.821 16.2867 1.584 4.4155 1.663 9.2221 1.651 13.917-.011 4.639-.1 9.2891-.613 13.9057-.436 3.8901-1.15 7.8025-.748 11.6925-.123-.1677-.234-.3465-.346-.5142-.29-.4919-.536-.9949-.726-1.5202-.435-1.1514-.68-2.4034-.926-3.6218-.602-3.1299-1.205-6.2598-1.819-9.3786-.179-.9278-.379-1.8779-.725-2.7498 1.116-2.3922 1.283-5.1532.892-7.8136z" fill="url(#r)"/><path d="m139.087 131.032c-1.038-.101-2.065-.28-3.08-.559-.279-.079-.558-.168-.837-.302-.402-.168-.77-.425-1.027-.738l.669-.291c.034.012.056.012.09.012 1.439.223 2.89-.369 4.174-1.085 6.83-3.812 10.948-11.39 12.231-19.115.369-2.235.558-4.583 1.674-6.572 1.429-2.5378 4.107-4.0357 6.518-5.6566 2.321-1.5537 4.542-3.3423 6.149-5.6338 2.154-3.0629 3.081-6.774 3.985-10.407.77-3.1187 1.529-6.4722.379-9.468l-.1-.1453c.201-.1565.39-.3018.58-.4583.034-.0223.045-.0335.078-.0559l.223.246c.38.2459.748.5365 1.072.8607l-.045.0559c.391.4806.67 1.006.882 1.5761.346.8719.547 1.8221.725 2.7499.614 3.1299 1.217 6.2598 1.819 9.3785.235 1.2184.491 2.4704.927 3.6218l-.235.0894c.603 1.6991.547 3.6553.302 5.4773-.335 2.4593-.96 4.9297-.592 7.3773.29 1.856 1.138 3.622 1.205 5.5 0 .09.012.168.012.257 0 4.673-4.71 8.663-4.029 13.325.189 1.33.814 2.548 1.25 3.823.435 1.263.658 2.716.055 3.923-.234.492-.613.939-.814 1.431-.391.034-.77.022-1.161-.022-1.719-.168-3.281-.962-4.922-1.465-5.044-1.565-10.468-.424-15.613.749-4.129.939-8.404 1.901-12.544 1.521z" fill="url(#s)"/><path d="m174.856 209.827c1.395 5.757 1.897 11.726 1.473 17.639-1.261-.011-2.489-.134-3.728-.357-.479-3.667-1.328-7.3-2.544-10.787-.536-1.509-1.127-3.007-1.496-4.561-1.049-4.538-.078-9.367-1.261-13.872-.569-2.169-1.629-4.181-2.165-6.361-.569-2.28-.569-4.661-.513-7.008.446.357.826.771 1.227 1.162 1.451 1.386 3.315 2.303 5.279 2.638-1.082 7.232 2.009 14.375 3.728 21.507z" fill="url(#t)"/><path d="m173.148 63.4144c.179.6818.324 1.3749.424 2.0679-.189.5701-.435 1.129-.747 1.6432l-.48-.2347c.111-.2236.223-.4471.346-.6819.044-.1006.1-.2235.067-.3353-.034-.1118-.134-.1789-.235-.2348-.413-.2012-.881-.2459-1.328-.3912-.435-.1453-.87-.4248-.993-.8719-.1-.3801.067-.7713.234-1.129.491-.9278 1.105-1.7885 1.842-2.5375.335.8943.625 1.7885.87 2.7052z" fill="url(#u)"/><path d="m172.858 241.897c.993 3.086-.346 6.394-1.674 9.357-1.328 2.962-2.712 6.215-1.808 9.334l.034.1c-.748.28-1.462.671-2.076 1.185-.29-.425-.503-.905-.558-1.408-.078-.682.1-1.364.279-2.035.937-3.532 1.852-7.042 2.79-10.575.569-2.168 1.149-4.381 1.294-6.628.056-1.006.056-2.102.168-3.141.323 1.308 1.149 2.515 1.551 3.811z" fill="url(#v)"/><path d="m166.207 67.4162c-2.746 1.252-5.581 2.448-8.583 2.5039-.189 0-.39 0-.591-.0223-1.06-.0783-2.121-.4248-2.612-1.3302-.29-.5254-.312-1.1514-.323-1.755-.045-3.6553.424-7.3777 2.053-10.6529 1.563-3.1187 4.297-5.768 7.634-6.6846v.0224c.022.3353.256.6148.513.8271.726.5701 1.652.7602 2.556 1.0061.558.1565 1.138.3577 1.629.6707.201.503.424 1.006.636 1.4979 1.072 2.3921 2.255 4.7619 3.159 7.2211-.748.749-1.362 1.6097-1.842 2.5375-.167.3577-.346.7489-.234 1.129.112.4471.547.7266.993.8719.436.1453.915.19 1.328.3912.101.0559.212.123.235.2348.033.1006-.023.2235-.067.3353-.112.2236-.223.4472-.346.6819-.569 1.1178-1.139 2.2357-1.697 3.3647-.055.1229-.122.2347-.178.3577-.19.1565-.38.3018-.581.4583-2.834 2.2692-5.825 4.4825-9.341 5.3208-.502.123-1.049.2124-1.584.2348 2.823-2.7387 5.267-5.8463 7.243-9.2221z" fill="url(#w)"/><path d="m158.975 76.6269c.535-.0336 1.071-.1118 1.584-.2348 3.516-.8383 6.507-3.0516 9.342-5.3208l.1.1453c1.15 2.9958.391 6.3493-.379 9.468-.893 3.6329-1.831 7.3441-3.985 10.4069-1.607 2.2916-3.828 4.0801-6.149 5.6339-2.422 1.6208-5.089 3.1187-6.518 5.6566-1.116 1.978-1.305 4.326-1.674 6.572-1.283 7.725-5.401 15.303-12.231 19.115-1.273.716-2.735 1.308-4.174 1.085l.033-.224c1.261-4.114 5.257-7.422 4.955-11.726-.111-1.587-.814-3.085-.937-4.661-.201-2.728 1.373-5.243 1.975-7.915 1.139-5.1416-1.361-10.5966-.1-15.705.223-.9278.558-1.7886.982-2.6269 2.556-5.0638 8.113-8.7079 9.921-14.1629.023.0112.034.0224.056.0336.614.3129 1.351.1788 2.031.3353.123.0335.246.0671.358.1341l-.045.1006c.1.6819.324 1.3638.681 1.9562.234.4136.547.7825.926 1.0732.893.7265 2.065.9389 3.248.8607z" fill="url(#y)"/><path d="m163.796 49.4862c-.011-.3689.245-.7042.536-.9501.658-.559 1.506-.8496 2.299-1.2185.58 1.5873 1.194 3.1411 1.852 4.6949-.491-.313-1.071-.5142-1.629-.6707-.893-.2347-1.831-.4248-2.556-1.006-.257-.2124-.491-.4919-.513-.8272.011-.0112.011-.0112.011-.0224z" fill="url(#A)"/><path d="m157.624 69.9199c3.002-.0559 5.837-1.2631 8.583-2.5039-1.976 3.387-4.42 6.4946-7.232 9.2221-1.183.0782-2.355-.1342-3.27-.8608-.369-.2906-.681-.6707-.927-1.0731 1.038-1.4308 1.808-3.074 2.255-4.7954.201.0111.401.0111.591.0111z" fill="url(#B)"/><path d="m135.694 23.5973-.19.0112c-2.834-2.4704-4.631-6.1033-4.631-10.1611.011-7.4335 6.015-13.4474 13.426-13.4474 5.033 0 9.419 2.77221 11.718 6.88581l-.19.24592c-1.127-.8719-2.421-1.46435-3.816-1.59849.736 1.31903 1.462 2.62689 2.198 3.94592-1.462-.90544-3.047-1.60967-4.687-2.10151 1.975 2.80575 4.207 5.42145 6.674 7.80245-2.88-2.0456-5.982-4.1695-9.498-4.4043 1.987 1.9898 4.13 3.8454 6.395 5.5333.748.5477 1.496 1.0843 2.266 1.5985-2.043-.8384-4.241-1.2408-6.44-1.1849.547 1.3414 1.719 2.2356 2.902 3.1299-.726 1.0172-1.507 1.9785-2.366 2.884-.424.4471-.86.8942-1.395 1.1961-1.752.9613-4.018.1676-5.871.9277-1.104.4472-1.919 1.3973-2.957 1.9786-.011 0-.011.0112-.022.0112-.168.1006-.358.1788-.547.1565-.212-.0336-.357-.2012-.502-.3577-.815-.8831-1.641-1.7886-2.456-2.6716 0-.1342-.011-.2571-.011-.3801z" fill="url(#C)"/><path d="m153.941 21.5963-.189.19c-1.898 2.5598-3.851 5.1979-6.551 6.9082-1.496.939-3.181 1.5761-4.565 2.6604-2.489 1.9674-3.694 5.0861-4.743 8.0819-1.853 5.2538-3.583 10.5523-5.167 15.9067-.146.4694-.279.9389-.224 1.4308.078.626.458 1.1849.871 1.6655 2.165 2.5934 5.134 4.3596 7.89 6.3046 2.578 1.8108 5.011 3.8118 7.288 5.9803-.156.1565-.29.3354-.413.5031-2.109 3.0181-3.415 6.5057-4.754 9.9598l-.145-.0559c-.134-3.1746-2.199-5.9692-4.587-8.0707-2.389-2.1015-5.168-3.7224-7.478-5.8909-2.321-2.1686-4.196-5.1532-3.995-8.3279.111-1.9114.971-3.6888 1.774-5.4214 3.996-8.6184 7.143-17.6058 10.268-26.5819.011 0 .011-.0112.022-.0112 1.038-.5813 1.853-1.5202 2.958-1.9785 1.852-.749 4.118.0335 5.87-.9278.547-.2907.982-.749 1.395-1.1961.859-.9054 1.641-1.8556 2.366-2.884.725.5589 1.484 1.1067 2.109 1.755z" fill="url(#D)"/><path d="m148.54 70.725c.19-.1901.413-.3466.669-.3801 1.061-.19 1.574 1.2631 2.5 1.7997-1.808 5.455-7.365 9.0991-9.921 14.1628l-.435-.2235c.736-1.5873 1.383-3.2417 2.031-4.8961 1.328-3.4541 2.645-6.9417 4.754-9.9598.112-.1789.246-.3577.402-.503z" fill="url(#E)"/><path d="m141.821 185.335c2.221-.29 4.442-.558 6.641-.301-2.043 3.007-4.018 6.159-4.632 9.725-.312 1.833-.257 3.7-.134 5.544.246 3.7.759 7.389.848 11.1.101 4.136-.334 8.306-.535 12.453-1.641.279-3.315.357-4.967.223l.034-.346c2.042-7.3-.491-15.091.011-22.67.335-5.309 2.154-10.429 2.734-15.728z" fill="url(#F)"/><path d="m132.636 241.685h-.033c.022-2.258.033-4.516.056-6.774.011-.425.022-.86.212-1.218.245-.47.747-.738 1.227-.973.447-.223.893-.447 1.351-.659.77-.336 1.551-.604 2.377-.682 1.328-.134 2.79.302 3.504 1.431.101.145.167.29.234.458.268.637.313 1.386.246 2.079-.346 3.588-3.281 6.539-3.493 10.128-.112 1.878.535 3.722.748 5.589.167 1.475.033 2.996-.358 4.438.938-.269 1.585-1.185 1.842-2.135.257-.939.212-1.945.223-2.929.034-2.594.547-5.187 1.462-7.613.681-1.755 1.585-3.487 1.674-5.365.078-1.431-.524-3.007-1.629-3.801l.167-.223c.759.603 1.54 1.252 2.188 1.978.904 1.006 1.562 2.169 1.584 3.51.045 1.901-1.205 3.533-1.997 5.265-.648 1.397-.994 2.929-1.027 4.449-.045 2.158.491 4.438-.424 6.383-.38.816-.993 1.487-1.652 2.113-.29.055-.591.044-.893.033-2.109-.112-4.207-.223-6.317-.346-.77-.045-1.562-.09-2.31.078-.625.134-1.239.425-1.663.894-.848-1.364-1.082-3.13-.87-4.762.279-2.146 1.194-4.136 2.042-6.125.726-1.666 1.384-3.421 1.529-5.221z" fill="url(#G)"/><path d="m142.469 233.424-.168.224c-.223-.168-.457-.291-.725-.38-.067-.168-.145-.313-.235-.458-.714-1.129-2.176-1.565-3.504-1.431-.826.089-1.607.357-2.377.682l-.101-.269c.335-2.951.391-5.924.168-8.864h.067c.491.693 1.395.917 2.232 1.028.413.056.815.101 1.227.135 1.652.122 3.337.044 4.967-.224-.19 3.879-.179 7.746.658 11.536l-.011.011c-.658-.749-1.44-1.397-2.198-1.99z" fill="url(#H)"/><path d="m142.29 233.637c1.105.805 1.707 2.37 1.629 3.8-.089 1.878-1.004 3.611-1.674 5.366-.926 2.426-1.428 5.019-1.462 7.612-.022.984.034 1.979-.223 2.929-.268.95-.904 1.867-1.841 2.135.401-1.442.524-2.951.357-4.438-.212-1.866-.86-3.711-.748-5.589.212-3.588 3.147-6.539 3.493-10.127.067-.693.023-1.442-.245-2.079.256.1.502.234.714.391z" fill="url(#I)"/><path d="m143.384 81.1766c-.648 1.6544-1.295 3.3088-2.032 4.8961-.781 1.6544-1.651 3.2417-2.734 4.7061-.156-3.2753.737-6.6846-.591-9.6469-1.485-3.3423-5.246-4.9855-7.656-7.7465-1.016-1.1625-1.786-2.5263-2.545-3.8677-1.395-2.4816-2.79-4.9631-4.174-7.4335-.513-.9055-1.027-1.8221-1.306-2.8169-.546-2.0233-.067-4.1807.659-6.1593 1.06-2.8728 2.623-5.522 4.085-8.2048 2.354-4.2589 4.497-8.6296 6.473-13.0786 1.104-2.5039 2.165-5.142 2.142-7.8583.815.8831 1.641 1.7885 2.456 2.6716.145.1565.29.313.502.3577.178.0336.368-.0447.547-.1565-3.136 8.9873-6.272 17.9635-10.268 26.5819-.803 1.7327-1.652 3.5212-1.774 5.4215-.201 3.1746 1.674 6.148 3.995 8.3278 2.31 2.1686 5.089 3.7894 7.477 5.8909 2.389 2.1015 4.453 4.8961 4.587 8.0707z" fill="url(#J)"/><path d="m138.618 90.8569c0-.0336 0-.0448 0-.0671 1.071-1.4644 1.953-3.0629 2.734-4.7061l.436.2236c-.424.8272-.748 1.6991-.982 2.6269-1.262 5.1085 1.249 10.5635.1 15.7058-.603 2.671-2.165 5.186-1.975 7.914.111 1.587.814 3.085.937 4.661.29 4.304-3.694 7.624-4.955 11.726l-.034.224c-.033 0-.055 0-.089-.011l-.67.29c-.145-.179-.256-.38-.312-.615-.223-.816.268-1.643.636-2.403 2.801-5.835-.513-13 1.451-19.171.547-1.721 1.518-3.342 1.674-5.153.167-1.978-.647-3.9234-.725-5.9131-.067-1.9227.591-3.8453 1.774-5.332z" fill="url(#K)"/><path d="m141.14 257.122c-.022.023-.033.034-.044.045-1.373 1.297-2.98 2.415-4.822 2.862-1.83.447-3.917.156-5.345-1.085-.391-.335-.715-.726-.982-1.162.424-.47 1.037-.76 1.662-.894.748-.168 1.541-.123 2.311-.079 2.109.112 4.207.224 6.316.347.313.011.625.022.904-.034z" fill="url(#L)"/><path d="m141.821 185.335c-.569 5.299-2.399 10.419-2.745 15.739-.491 7.568 2.042 15.359-.011 22.67l-.034.346c-.413-.033-.814-.078-1.227-.134-.837-.111-1.753-.335-2.232-1.028h-.067c-.168-2.493-.547-4.963-1.105-7.389-.357-1.52-.782-3.04-1.061-4.583-.502-2.85-.446-5.779-.357-8.674.168-5.545.48-11.089.915-16.622.302.044.603.089.904.111 2.299.213 4.654-.134 7.02-.436z" fill="url(#M)"/><path d="m139.087 131.032c.424 2.794.245 5.678-.514 8.406-1.194 4.314-3.816 8.137-4.955 12.486-.759 2.884-.848 5.835-.636 8.808l-1.797.146c-.189-2.829-.814-5.645-.692-8.485.157-3.867 1.652-7.534 2.735-11.245 1.038-3.577 1.696-7.266 1.953-10.988.279.134.558.223.837.301 1.004.291 2.031.47 3.069.571z" fill="url(#N)"/><path d="m133.897 185.648c-.446-.078-.881-.178-1.328-.301-.669-.19-1.395-.526-1.607-1.196-.1-.325-.067-.682-.033-1.018.178-2.157-.168-4.314-.29-6.483-.291-5.265.87-10.53.535-15.784l1.797-.145c.246 3.622.926 7.288 1.317 10.91.491 4.695.502 9.423.513 14.129-.301-.022-.602-.056-.904-.112z" fill="url(#O)"/><path d="m182.59 289.819c.268.894.535 1.811.446 2.75-.123 1.174-.814 2.235-1.696 3.029-.882.783-1.942 1.353-2.991 1.889-1.027.548-2.098 1.096-3.259 1.174-1.462.101-2.902-.581-4.018-1.554-.669-.581-1.227-1.263-1.741-1.978.123.123.257.234.391.346 1.116.838 2.611.961 3.995.783 2.913-.369 5.659-1.957 7.455-4.282.637-.838 1.172-1.833 1.206-2.872.067.234.134.48.212.715z" fill="url(#P)"/><path d="m182.367 289.104c-.034 1.028-.57 2.034-1.206 2.872-1.785 2.325-4.542 3.913-7.455 4.282-1.384.178-2.879.067-3.995-.783-.134-.112-.268-.212-.391-.346-.022-.012-.022-.023-.022-.034-.335-.447-.647-.905-.938-1.364-.301-.592-.524-1.218-.736-1.833-1.496-4.438-2.935-8.887-4.319-13.347l.044-.022c.927-1.174 1.172-2.795.938-4.27-.023-.101-.034-.19-.045-.291l.168-.022c2.622 5.231 4.944 10.608 6.941 16.108.268.76.782 1.665 1.574 1.576.268-.034.502-.179.737-.336 1.752-1.129 3.671-2.503 3.995-4.583.29-1.811-.759-3.532-1.663-5.119-1.975-3.432-3.504-7.11-4.553-10.921l.156-.067c.547 1.453 1.785 2.559 2.957 3.61l.246-.089c.39 1.084.77 2.179 1.194 3.253 1.216 3.006 2.835 5.846 4.821 8.417.648.838 1.351 1.699 1.507 2.738.056.168.067.369.045.571z" fill="url(#Q)"/><path d="m176.016 281.58c.904 1.588 1.953 3.309 1.663 5.12-.323 2.079-2.243 3.454-3.995 4.583-.235.157-.469.302-.737.336-.792.089-1.305-.816-1.573-1.577-1.998-5.499-4.319-10.876-6.942-16.107l-.167.022c-.09-.436-.168-.883-.101-1.308.156-1.073 1.116-1.811 1.998-2.437 1.071-.76 2.21-1.542 3.504-1.699.257-.033.514-.045.748.045.703.257.882 1.129 1.116 1.833.022.067.045.134.078.201l-.156.067c1.071 3.812 2.6 7.49 4.564 10.921z" fill="url(#R)"/><path d="m174.811 274.102-.245.09c-1.172-1.04-2.411-2.147-2.958-3.611-.033-.067-.056-.123-.078-.201-.246-.704-.413-1.587-1.116-1.833-.234-.09-.502-.079-.748-.045-1.306.168-2.433.939-3.504 1.699-.882.626-1.842 1.364-1.998 2.437-.067.436.011.883.101 1.308.011.1.022.19.044.29.223 1.487-.022 3.097-.937 4.27l-.045.023c-.257-.816-.502-1.621-.748-2.437-.591-1.934-1.171-3.868-2.031-5.701-.826-1.755-1.886-3.387-2.98-4.985-.491-.727-.982-1.442-1.473-2.158l.313-.212c1.953-.19 3.772-.895 5.502-1.833 1.105-.593 2.165-1.264 3.214-1.957.837 1.521 1.808 2.951 2.969 4.282 1.171 1.341 2.511 2.537 3.571 3.968 1.44 1.978 2.321 4.281 3.147 6.606z" fill="url(#S)"/><path d="m165.102 259.257c-1.038.693-2.11 1.364-3.214 1.957l-.123-.213c-1.54-2.772-3.08-5.544-4.632-8.328-1.551-2.772-3.091-5.555-4.319-8.473-1.361-3.275-2.288-6.707-3.683-9.96-1.395-3.252-3.314-6.394-6.183-8.462l-.2-.346c1.183-.682 2.321-1.431 3.415-2.236 1.406 1.599 2.823 3.186 4.218 4.785 1.63 1.844 3.259 3.7 4.598 5.756 5.045 7.646 5.781 17.651 10.123 25.52z" fill="url(#U)"/><path d="m161.776 261.001.123.213c-1.73.928-3.549 1.643-5.502 1.833l-.313.212c-3.303-4.773-6.685-9.501-9.229-14.721-1.764-3.633-3.125-7.501-5.502-10.765-2.221-3.085-5.279-5.511-7.422-8.63 3.08-.838 6.071-2.09 8.828-3.7l.201.347c2.868 2.068 4.787 5.209 6.182 8.462s2.322 6.684 3.683 9.96c1.217 2.928 2.768 5.712 4.319 8.473 1.552 2.772 3.092 5.544 4.632 8.316z" fill="url(#W)"/><path d="m146.185 223.196c-1.094.805-2.232 1.554-3.415 2.236-2.757 1.61-5.748 2.862-8.828 3.7-.257.067-.502.134-.748.201-1.506.369-3.292.593-4.453-.447-.725-.648-1.027-1.643-1.35-2.56-2.389-6.651-8.17-11.524-14.297-15.012-2.31-1.319-4.709-2.482-7.12-3.622-3.973-1.889-7.9907-3.689-11.7294-5.98-3.337-2.035-6.5846-4.505-10.4238-5.176 1.1272 2.348 1.9754 4.829 2.5223 7.378.1116.503.2008 1.039.0558 1.554-.4241 1.52-2.5 1.676-4.0736 1.509 3.2142 1.967 5.6472 5.164 6.6739 8.786l-.4687.525c-1.1384-.983-2.3548-1.889-3.5713-2.761-1.9196-1.397-3.9843-2.828-6.1494-3.89-2.8905-1.442-5.9484-2.235-9.0398-1.453-.3125.067-.6473.156-.9822.168-.3906.022-.7477-.056-.9821-.347-.2009-.235-.2455-.57-.2567-.883-.0669-3.32 3.4151-5.343 6.1048-7.277 2.5222-1.811 4.6761-4.125 6.3167-6.763 1.7968-2.917 3.1249-6.394 5.8703-8.339.5915.213 1.3058.268 1.9419.268 4.9441.068 10.089-.301 14.4193-2.705 1.64-.916 3.125-2.09 4.698-3.118 4.967-3.231 10.949-4.863 16.864-4.595 1.026.045 2.198.09 2.901-.648.123-.123.212-.257.268-.391l.045.022c2.31-.212 4.085 2.124 4.698 4.36.625 2.246.603 4.694 1.741 6.729.826 1.487 2.21 2.616 2.98 4.136.737 1.442.86 3.085 1.083 4.684 1.35 9.4 6.551 17.739 9.72 26.693.201.57.391 1.208.179 1.766-.167.436-.558.738-.926 1.029-.101.089-.179.156-.268.223z" fill="url(#Y)"/><path d="m85.8298 184.754c-.4576-.156-.8482-.402-1.1161-.816-.0111-.011-.0223-.022-.0223-.033 2.4553-1.062 4.9106-2.504 5.6025-5.019.4018-1.476.1228-3.13.7812-4.494.9263-1.9 3.4039-2.671 4.2744-4.594 1.1384-2.47-.9151-5.187-1.3057-7.881-.2679-1.889.3459-3.879 1.6182-5.287 1.6183-1.777 4.364-2.929 4.598-5.321.156-1.554-.8816-2.962-1.8637-4.181-.8147-1.028-1.6406-2.056-2.4553-3.085-.491-.603-.9821-1.252-1.0825-2.023-.2121-1.632 1.4397-2.884 2.9909-3.421 1.5513-.547 3.3256-.86 4.3416-2.168 1.406-1.822.502-4.483-.592-6.517-3.6491-6.707-9.0172-12.486-15.4456-16.611l.067-.089c5.4127 2.09 10.8925 4.762 14.3746 9.434 3.248 4.348 4.352 9.915 6.986 14.666 2.935 5.287 7.734 9.569 9.576 15.325.502 1.599.77 3.264 1.261 4.852 1.417 4.616 4.654 8.406 7.511 12.296.815 1.106 1.596 2.66.993 3.789-.067.134-.156.268-.268.391-.703.738-1.886.694-2.901.649-5.915-.268-11.897 1.364-16.864 4.594-1.573 1.028-3.058 2.202-4.698 3.119-4.3304 2.414-9.4753 2.783-14.4193 2.705-.6362-.011-1.3504-.056-1.9419-.28z" fill="url(#Z)"/><path d="m90.1264 217.831c-.5022-.537-1.049-1.04-1.607-1.52l.4687-.526c-1.0268-3.622-3.4597-6.819-6.6739-8.786 1.5736.168 3.6494.011 4.0735-1.509.1451-.503.0558-1.04-.0558-1.554-.5468-2.56-1.395-5.041-2.5222-7.377 3.8391.67 7.0868 3.13 10.4238 5.175 3.7387 2.292 7.7565 4.091 11.7295 5.981-3.761 3.319-6.9306 7.366-9.2743 11.815-.7031 1.341-1.4955 2.839-2.9351 3.275-.9487.291-1.9643.022-2.9241-.235-1.1606-.313-2.3213-.626-3.482-.939.1674-.19.3348-.368.4911-.558 1.5513.547 3.2365.737 4.8882.547-.6361-1.442-1.5401-2.683-2.6004-3.789z" fill="url(#aa)"/><path d="m81.8008 156.384c-.0558-.179-.1227-.358-.1897-.537-.971-2.481-2.4106-4.739-3.6606-7.087-.0335-.067-.067-.123-.1004-.19-2.0312-3.89-3.549-8.082-4.4419-12.385l-.0334-.123c1.6517-.503 3.2253-1.286 4.7654-2.09 2.2656-1.197 4.5311-2.471 7.031-3.052 1.5736-.369 3.4263-.581 4.2856-1.956.9821-1.543.0781-3.51-.6473-5.187-1.116-2.526-1.8191-5.231-2.0981-7.981-.0782-.839-.1563-1.755-.692-2.415-.0335-.045-.0669-.078-.1116-.123l.067-.067c.0669.034.1228.078.1786.123 6.4283 4.125 11.7964 9.904 15.4456 16.611 1.105 2.034 2.009 4.695.592 6.517-1.016 1.308-2.7903 1.621-4.3416 2.169-1.5513.547-3.203 1.788-2.991 3.42.1005.771.5915 1.409 1.0826 2.023.8258 1.029 1.6405 2.057 2.4552 3.086.9822 1.218 2.0198 2.626 1.8638 4.18-.246 2.404-2.9798 3.555-4.598 5.321-1.2723 1.409-1.8861 3.409-1.6183 5.287.3906 2.694 2.4441 5.411 1.3058 7.881-.8817 1.923-3.3481 2.694-4.2744 4.594-.6697 1.364-.3795 3.018-.7813 4.494-.6919 2.515-3.1472 3.957-5.6025 5.019-.558-.894-.2455-2.09.2902-3.007.5469-.928 1.3058-1.744 1.6183-2.772.6361-2.035-.6362-4.136-.7366-6.271-.067-1.554.4687-3.119.1897-4.639-.2344-1.263-1.0044-2.336-1.6071-3.465-.0223-.034-.0335-.067-.0558-.101-1.2165-2.28-1.6964-4.851-2.5892-7.277z" fill="url(#ab)"/><path d="m92.7156 221.598c-1.6405.201-3.3258.011-4.8882-.548.8482-1.006 1.6294-2.079 2.2879-3.219 1.0714 1.106 1.9753 2.347 2.6003 3.767z" fill="url(#ac)"/><path d="m87.3475 221.609c-3.4151 3.801-7.9685 6.707-11.9416 10.049-1.4062 1.185-2.7901 2.504-3.5267 4.181-.6249 1.431-.7254 3.029-.7365 4.583-.0224 3.734.4352 7.523-.3014 11.178-1.049 5.265-4.4195 9.714-6.473 14.677-.8481 2.08-1.4731 4.226-2.0311 6.394l-.7366-.022c-1.8638-.112-3.7164-.503-5.4798-1.129 1.9531-7.042 3.3593-14.196 3.1473-21.462-.0782-2.795-.4018-5.601-.3125-8.395.1674-6.103 2.3102-12.151 6.0266-16.991 4.1516-5.399 10.1335-9.323 13.8053-15.001 2.1651 1.062 4.2298 2.492 6.1493 3.89 1.2165.872 2.433 1.777 3.5713 2.761.5581.48 1.1049.983 1.6071 1.52-.6584 1.151-1.4396 2.224-2.2878 3.219-.1451.179-.3125.358-.4799.548z" fill="url(#ad)"/><path d="m62.3819 122.804c-.1675-.123-.3349-.234-.5023-.357.6139-.559 1.2835-1.062 1.9754-1.509 1.741-1.118 3.6941-1.945 5.6025-2.75 2.2879-.962 4.5646-1.912 6.8525-2.862-.0112.067-.0112.157-.0224.235.0224-.09.0558-.168.067-.268 1.5066-.638 3.0133-1.264 4.5199-1.89 2.4442-1.352 3.962-1.263 5.011-.167.0335.033.067.067.1116.123.5469.659.6139 1.576.692 2.414.279 2.75.9821 5.455 2.0981 7.982.7254 1.676 1.6183 3.655.6473 5.186-.8593 1.375-2.7119 1.588-4.2856 1.956-2.4999.582-4.7543 1.856-7.031 3.052-1.5401.805-3.1137 1.599-4.7654 2.09-.7813.246-1.5848.414-2.4107.503-.3013.034-.6026.056-.9151.056v-.179c.7812-1.274 1.5624-2.615 1.9419-4.057.1004-.358.1674-.716.212-1.085.1674-1.453-.2343-3.04-1.2053-4.08-.279-.301-.5915-.547-.9709-.737-.6027-.313-1.2835-.459-1.9419-.649-2.0424-.581-3.895-1.755-5.6806-3.007z" fill="url(#ae)"/><path d="m48.9448 153.12c8.9952 2.94 18.1578 5.399 27.4321 7.378.8816.19 1.8079.368 2.6673.1 1.674-.536 2.3437-2.504 2.7678-4.225.8816 2.425 1.3727 4.985 2.578 7.277.0223.033.0335.067.0558.1-.2121.816-.4464 1.644-.6585 2.471-.0669.279-.1562.581-.3571.782-.3013.313-.7812.324-1.2053.324-7.3212-.055-14.4861-2.191-21.2605-4.985-1.4062-.581-2.8235-1.196-4.319-1.509-2.7678-.581-5.6471-.09-8.4261.425.3125-.213.5915-.459.7813-.783.2455-.413.3124-.916.3571-1.408.0335-.403.0558-.828-.0558-1.219-.1005-.369-.3237-.726-.6696-.883-.3237-.726-.8594-1.352-1.5513-1.744-.2902-.167-.625-.29-.9487-.212-.2901.067-.5022.313-.7031.548-.7812.928-1.5401 1.866-2.2543 2.839-.279.369-.5469.76-.8147 1.14-1.1049-.548-2.2544-1.118-2.9575-2.135-1.0268-1.464-.7255-3.577.4129-4.985.2344-.302.5022-.57.8259-.794.8816-.626 1.9195-.928 2.9909-.939 1.1161-.022 2.2433.235 3.2254.749.7477.402 1.4397.917 2.2432 1.207z" fill="url(#af)"/><path d="m81.6111 155.847c.0669.179.1339.358.1897.537-.4241 1.721-1.0937 3.689-2.7678 4.225-.8593.269-1.7856.09-2.6673-.1-9.2742-1.979-18.4257-4.449-27.4321-7.378l.1451-.447c.7812.279 1.6071.324 2.4441.358 7.9908.402 15.9816.793 23.9724 1.196.3794.022.8147.022 1.0825-.246.2344-.213.3014-.548.3572-.85.2455-1.498.5022-2.984.7477-4.493l.1674-.079c.0335.067.067.123.1005.19 1.2499 2.359 2.7008 4.606 3.6606 7.087z" fill="url(#ag)"/><path d="m80.8968 113.426c-1.5066.626-3.0133 1.252-4.5199 1.889.5245-1.8.1004-3.756-.413-5.567-.2455-.883-.5133-1.822-.3348-2.694l.2344.045c.1562.067.3013.145.4464.235.3125.212.558.491.8147.76.2567.268.5915.693.9598 1.207.8035 1.107 1.8414 2.66 2.8124 4.125z" fill="url(#ah)"/><path d="m77.7384 100.604c.3795 2.862.5022 5.757.3795 8.641l-.0447.034c-.3683-.503-.6919-.928-.9598-1.207-.2567-.269-.5022-.548-.8147-.761-.1451-.089-.2901-.167-.4464-.234l-.2343-.045c.0223-.145.0669-.291.1227-.436.2121-.537.6027-.973.904-1.453.9821-1.643.6696-3.968-.7366-5.2763-.4018-.3689-.9263-.6707-1.462-.5925-.6138.0894-1.0267.6484-1.3281 1.2068-.4017.761-.7031 1.588-.8705 2.426-.0893.425-.1562.883-.4464 1.207-.5468.593-1.5513.358-2.2097-.111-1.9977-1.409-2.7566-4.3934-5.078-5.1647-1.462-.4919-3.0468.0894-4.4195.7825-1.2053.5922-2.3883 1.3192-3.1695 2.4142-.558.783-.8817 1.699-.9933 2.649v.012c-1.1718.313-2.4553.167-3.5267-.425-1.1606-.637-2.0311-1.789-2.3213-3.074-.1228-.548-.1339-1.163.1674-1.621.3237-.503.9375-.7265 1.5066-.9166 1.2388-.4136 2.5-.8719 3.5714-1.6432 1.1718-.8384 2.1204-2.0568 3.4708-2.5375 1.1384-.4024 2.3772-.2235 3.5825-.2123 1.3839.0111 2.7678-.2236 4.0735-.6931 1.2946-.4583 2.5669-1.1402 3.9284-1.0731 1.7411.0782 3.1584 1.3526 4.4195 2.5375.7813.7377 1.5737 1.4867 2.0759 2.4256.5357.9726.7142 2.068.8593 3.1407z" fill="url(#ai)"/><path d="m55.9423 104.696c.1228-.962.4353-1.878.9933-2.65.7812-1.084 1.9754-1.81 3.1695-2.4141 1.3727-.6931 2.9575-1.2743 4.4195-.7825 2.3214.7713 3.0803 3.7446 5.078 5.1646.6584.458 1.6629.693 2.2097.112.2902-.325.3572-.783.4464-1.208.1674-.838.4576-1.665.8705-2.425.3014-.5481.7143-1.1182 1.3281-1.2076.5469-.0783 1.0714.2123 1.462.5924 1.4062 1.3082 1.7187 3.6332.7366 5.2762-.3013.492-.6919.928-.904 1.453-.0558.145-.1004.291-.1227.436-.1786.883.0892 1.822.3348 2.694.5133 1.811.9374 3.767.4129 5.567-.0223.011-.0335.022-.0558.022-2.2879.95-4.5646 1.9-6.8525 2.862-1.9195.793-3.8726 1.621-5.6024 2.75l-.0893-.146c-2.924-3.007-5.2454-6.595-6.8078-10.496-.5357-1.33-.9821-2.728-1.0714-4.158-.0335-.481-.0223-.962.0446-1.442z" fill="url(#aj)"/><path d="m78.7877 209.66c-3.6718 5.678-9.6537 9.602-13.8054 15.001-3.7164 4.851-5.8591 10.887-6.0266 16.991-.0781 2.794.2344 5.6.3125 8.395.2121 7.277-1.1941 14.431-3.1472 21.462-1.6405-.581-3.203-1.364-4.6315-2.359-.1563-.1-.4018-.145-.5469-.078.1228-2.75.2456-5.511.3683-8.272.1674-3.845.346-7.713 1.0937-11.491 1.3728-6.852 4.6092-13.291 5.357-20.233.2902-2.738.2232-5.634 1.5959-8.003.971-1.699 2.5557-2.929 3.9619-4.293 2.3995-2.358 4.2856-5.254 5.4574-8.417.3237-.011.6697-.089.9821-.168 3.0803-.782 6.1382.023 9.0288 1.465z" fill="url(#ak)"/><path d="m71.6449 132.295.3572.089c-.3795 1.442-1.1607 2.784-1.9419 4.058v.179c-2.2767.022-4.6093-.783-5.9931-2.56l-.1674-.369c2.511-1.118 5.1114-1.945 7.7452-1.397z" fill="url(#al)"/><path d="m33.1083 132.362c.4911-.168.9821-.335 1.4508-.514.0782-.023.1675-.067.2456-.09 2.2878-.86 4.5311-1.922 6.9417-2.414 2.2656-.459 4.5981-.425 6.8859-.682 5.011-.559 9.8435-2.638 13.7384-5.846 1.7857 1.252 3.6494 2.425 5.7253 3.029.6584.19 1.3392.324 1.9419.648.3683.19.6919.447.9709.738l-.2678.19c-5.4351.76-10.7474 2.415-15.658 4.851-1.4508.738-2.8794 1.532-4.386 2.158-7.3547 3.074-15.7584 1.777-23.5595 3.409-2.366.503-4.7431 1.308-6.5623 2.907-.2343.201-.4575.413-.6584.637-.6473.648-1.2388 1.352-1.9308 1.956-1.3727 1.218-3.1249 1.979-4.944 2.202-2.6004-1.073-5.27883-1.99-8.00196-2.75-1.45084-.391-2.99097-.782-4.04004-1.878 3.11374.067 6.20515.537 9.185 1.398-1.51785-1.465-3.03565-2.94-4.55346-4.405-.74774-.726-1.55129-1.643-1.31692-2.649 2.57804 1.308 5.15608 2.605 7.73408 3.912-2.0423-2.079-4.12929-4.203-5.25648-6.885.83702-.503 1.88609.022 2.68964.547 2.32134 1.509 4.53114 3.197 6.60694 5.031-1.0156-1.934-1.8638-3.946-2.5111-6.025.7477.592 1.5067 1.196 2.3102 1.721.7366.492 1.4955.905 2.3102 1.196.1562.067.3125.123.4799.168 2.7008.782 5.5802.022 8.2921-.727 2.0535-.581 4.1182-1.151 6.1382-1.833z" fill="url(#am)"/><path d="m58.1411 289.539.1674.034c.2901.302.4575.648.5357 1.017l-.0335.011c-1.2723-.715-2.3772-1.766-3.1584-3.007-.4018-.659-.7254-1.363-1.0491-2.068-.5468-1.207-1.0937-2.403-1.6406-3.61 1.1049-3.443 2.2098-6.908 3.1696-10.407 1.7633.637 3.6159 1.028 5.4797 1.129l.7366.022c-.1786.727-.3571 1.453-.5469 2.169-1.2276 4.918-2.4441 9.814-3.6605 14.71z" fill="url(#an)"/><path d="m52.9514 281.916c.5469 1.207 1.0937 2.403 1.6406 3.61.3236.693.6473 1.409 1.049 2.068.7813 1.241 1.8861 2.292 3.1584 3.007l.0335-.011c.2567 1.241-.5357 2.772-1.3281 3.901-1.741 2.459-3.482 4.941-5.223 7.411-.067.079-.1228.168-.2009.257l-.3683-.122c-.6138-3.678-2.5222-7.043-4.7878-10.005-2.2655-2.962-4.9105-5.612-7.2988-8.496-2.3884-2.883-4.5088-6.002-6.328-9.289-.6026-1.106-1.3615-2.347-2.4552-2.817l.0669-.145c.5915.123 1.1719.302 1.741.514 2.1763 1.588 4.5869 2.862 6.9753 4.125 1.7856.939 3.5936 1.889 5.5243 2.448 1.9308.559 4.0401.704 5.9485.045.0669-.022.1562-.056.2232-.09.5469 1.197 1.0937 2.393 1.6294 3.589z" fill="url(#ao)"/><path d="m56.1209 271.509c-.9598 3.499-2.0647 6.964-3.1695 10.407-.5469-1.196-1.0826-2.404-1.6406-3.6.3237-.123.6473-.313.837-.592.4464-.671.0782-1.554-.279-2.269-.3125-.593-.6584-1.23-1.1383-1.666.0669-1.565.1451-3.141.212-4.706.1451-.067.3906-.022.5469.078 1.4285.984 2.9909 1.778 4.6315 2.348z" fill="url(#ap)"/><path d="m51.7126 302.037.3683.123c-.1451.145-.3125.246-.5022.212-.1228-.022-.2344-.101-.3348-.168-4.4083-3.197-8.8167-6.405-13.225-9.602-3.0691-2.224-6.1717-4.505-8.4596-7.523-2.2767-3.029-3.6494-6.975-2.7231-10.653.3906-1.565 1.5178-3.241 3.1249-3.185.3125.011.6027.078.8705.201 1.0937.469 1.8415 1.71 2.4553 2.817 1.8191 3.286 3.9396 6.405 6.3279 9.289s5.0333 5.533 7.2989 8.495c2.2767 2.963 4.1851 6.316 4.7989 9.994z" fill="url(#aq)"/><path d="m51.0764 277.78c.0781.179.1674.357.2455.547-.067.034-.1563.068-.2232.09-1.9084.659-4.0177.514-5.9485-.045-1.9307-.559-3.7387-1.509-5.5244-2.448-2.3883-1.263-4.7877-2.537-6.9752-4.125 1.1719.436 2.3102 1.006 3.4709 1.453 3.6829 1.409 7.8457 1.521 11.6068.313.6584-.212 1.3615-.469 2.0423-.313.3683.079.6919.269.9709.537-.0558 1.286-.1227 2.56-.1674 3.845z" fill="url(#ar)"/><path d="m45.1949 161.001c-.0112-.012-.0112-.023-.0112-.023-.1116-.391-.0781-.827.0112-1.229.1674-.772.5691-1.509 1.183-1.99.6249-.481 1.4731-.693 2.2209-.458l.1227-.056c.5469 1.386.3906 3.029-.6919 4.057.0558-.011.1116-.022.1674-.022-.1228.101-.2567.179-.4018.268-.4575.313-.9932.637-1.5513.548-.4687-.078-.8481-.47-1.0156-.928 0-.067-.0223-.112-.0334-.167zm.212.346c.346.548.2679-.581 0 0z" fill="url(#as)"/><path d="m48.6101 156.987c.0446.079.0781.168.1227.246l-.1227.056c-.7478-.234-1.596-.022-2.2209.459-.6139.491-1.0268 1.218-1.183 1.989-.0893.403-.1228.839-.0112 1.23-.5022-.85-1.4955-2.538-2.0312-2.538.7143-.983 1.462-1.922 2.2544-2.839.2009-.235.4129-.48.7031-.548.3237-.078.6585.045.9486.213.6808.391 1.2054 1.017 1.5402 1.732z" fill="url(#at)"/><path d="m45.407 161.347c.267-.58.3448.546 0 0z" fill="url(#au)"/><path d="m43.5989 150.493.0112.235c-1.0714.022-2.1205.313-2.991.939-.3124.223-.5915.503-.8258.793-1.8861-3.599-4.52-7.008-8.2587-8.573-1.741-.738-3.6494-1.029-5.5132-1.297l-.0111-.078c1.9084-.112 3.828-.235 5.7475-.392l.0447.604c1.1048.503 2.2655.872 3.4597 1.118.1785.033.4129.045.5134-.123.0446-.089.0223-.201.0223-.302-.0893-.548-.1786-1.107-.2679-1.643.6473-.067 1.2723-.134 1.9084-.212 1.8303 3.129 3.9062 6.114 6.1605 8.931z" fill="url(#av)"/><path d="m31.6128 116.265c1.9308 4.941 2.5 10.295 2.9575 15.583-.4799.178-.9709.357-1.4508.514-.4464-4.304-1.4062-8.552-2.8794-12.62-.7812-2.18-1.7298-4.36-3.3146-6.048-.8147-.861-1.8749-1.621-3.0579-1.621-1.3504-.011-2.5111.939-3.3816 1.979-3.0691 3.677-3.8615 8.775-3.6494 13.57.1116 2.359.4464 4.751 1.4285 6.897l-.0781.224c-.8148-.291-1.5737-.704-2.3102-1.196-2.2209-5.835-1.9085-12.598.8482-18.198.7812-1.565 1.741-3.063 3.0802-4.181s3.0691-1.845 4.7989-1.71c1.7076.134 3.2812 1.095 4.4419 2.358 1.1606 1.286 1.9419 2.851 2.5668 4.449z" fill="url(#aw)"/><path d="m72.2252 131.3c-.0446.369-.1227.738-.212 1.084l-.3571-.089c-2.645-.548-5.2342.268-7.7453 1.408-1.3169.593-2.6115 1.275-3.8838 1.889-7.0645 3.432-14.754 5.064-22.5774 5.981-.6361.067-1.2611.145-1.9084.212-1.25.123-2.4999.246-3.761.347-1.9196.156-3.8392.279-5.7476.391-1.0491.067-2.0982.123-3.1472.168-.1228 2.414-2.7455 4.08-3.8392 6.326-1.0937 2.281-.5692 5.131-1.8638 7.311-.3906.648-1.3615 1.196-1.7968.592-.1674-.212-.1674-.503-.1785-.771-.067-2.794-.1451-5.611-.2121-8.417-.0111-.436-.0223-.894-.2678-1.252-.2456-.358-.6585-.548-1.0491-.715-.2009-.079-.4018-.168-.6027-.258 1.8192-.212 3.5713-.983 4.9441-2.202.6919-.603 1.2834-1.307 1.9307-1.956.2121-.212.4241-.436.6585-.637 1.8191-1.598 4.1963-2.414 6.5622-2.906 7.8011-1.632 16.2049-.336 23.5595-3.41 1.5067-.626 2.9352-1.419 4.386-2.157 4.9106-2.448 10.2229-4.091 15.658-4.851l.2678-.19c.9487 1.061 1.3393 2.649 1.183 4.102z" fill="url(#ax)"/><path d="m211.718 210.744c-.312.447-.759.782-1.183 1.106l-.234.168c-.179.134-.346.268-.524.414-.19.145-.391.301-.592.447-.1.078-.246.156-.379.19-.012-.09-.056-.179-.079-.28l-2.198-.011-5.391-.045c.235-1.173-1.663-.838-2.232-1.799l-1.272-1.945 14.453.413c.067.47-.101.951-.369 1.342z" fill="url(#az)"/><path d="m248.034 214.891c.045-.056.09-.123.123-.19.179-.358.234-.749.201-1.14-.067-.805-.48-1.576-1.105-2.068-.134-.101-.301-.201-.457-.201h-10.737c1.373-7.367 6.763-12.855 13.192-12.855.368 0 .736.022 1.094.055 6.964.682 12.443 7.814 12.443 16.522s-5.479 15.851-12.443 16.521c-.358.034-.726.056-1.094.056-7.478 0-13.549-7.422-13.549-16.577 0-.034 0-.09 0-.123z" fill="url(#aA)"/><path d="m239.374 259.09c1.216 1.654.48 4.002-.503 5.812-1.785 3.298-4.173 6.204-6.417 9.2-4.955 6.651-9.196 13.839-12.622 21.406-.145-.022-.29.045-.424.123-1.775 1.006-3.025 2.84-4.944 3.566-1.027.392-2.165.38-3.214.034 7.477-9.647 10.914-22.267 19.631-30.841-3.203-.782-6.384.425-9.598 1.464-2.4.783-4.81 1.465-7.254 1.174l-.168-.101c.982-1.62 1.853-3.308 2.299-5.153.268-1.14.357-2.381-.1-3.465-.469-1.084-1.429-1.889-2.433-2.493-2.043-1.207-4.308-1.777-6.663-2.068.96-.771 1.786-1.732 2.388-2.817 8.493.794 16.986 1.577 25.468 2.37 1.674.168 3.549.436 4.554 1.789z" fill="url(#aB)"/><path d="m234.675 305.58c.748.783.592 2.113.369 3.197-.09.391-.179.816-.503 1.073-.29.235-.714.246-1.104.246-3.192.011-6.373-.033-9.554-.134l.011-.492c1.395-.033 2.779-.425 3.985-1.14 1.082-.626 2.009-1.509 3.091-2.124 1.083-.626 2.433-.995 3.594-.492z" fill="url(#aC)"/><path d="m219.832 295.52c.033-.011.078 0 .112.022.156.078.223.257.267.414.235.749.425 1.52.748 2.247 1.016 2.258 3.259 3.733 5.569 4.627 2.299.895 4.766 1.319 7.098 2.169.302.1.614.223.86.425.066.044.122.1.178.156l-.112.134c-1.149-.492-2.499-.134-3.593.492-1.083.615-2.009 1.498-3.092 2.124-1.205.704-2.589 1.095-3.984 1.14l-.011.492c-2.478-.067-4.955-.168-7.433-.291l.011-.167c-1.484-.157-2.756-1.107-3.85-2.113-1.105-1.006-2.132-2.135-3.46-2.806-.58-.29-1.227-.48-1.863-.447.814-2.18 1.216-4.505 1.205-6.841l.134-.078c.268.425.614.816 1.004 1.129.48.402 1.038.704 1.63.894 1.049.347 2.187.358 3.214-.033 1.908-.727 3.169-2.56 4.944-3.566.134-.079.29-.146.424-.123z" fill="url(#aD)"/><path d="m225.714 211.549c-3.058-1.241-5.424-3.801-8.136-5.735-.235 1.565.402 3.119.781 4.65 1.016 4.013.424 8.406 2.065 12.218l.245-.033.123.033c-.547 2.292-1.071 4.594-1.395 6.92-.234 1.721-.368 3.465-.859 5.119-.492 1.666-1.362 3.287-2.791 4.281-.346.235-.747.448-1.183.425-1.004-.078-1.417-1.319-1.529-2.314-.691-6.192.748-12.452.067-18.645-.245-2.258-.87-4.65-2.589-6.148l-.223-.302c.078-.056.156-.112.223-.167.424-.325.871-.66 1.183-1.107.279-.391.435-.872.369-1.342h.078c.647-.312 1.093-.95 1.328-1.632.234-.681.279-1.419.268-2.135-.012-1.788-.257-3.554-.168-5.332.022-.234.034-.491.156-.704.235-.425.793-.57 1.273-.548.491.034.948.202 1.451.202 1.261.033 2.321-.962 3.024-2.024.714-1.062 1.25-2.269 2.21-3.096 1.194-1.028 2.857-1.297 4.375-1.766 1.35-.414 2.79-1.163 3.337-2.426 1.294.85 2.176 2.236 2.689 3.723.491 1.486.625 3.074.67 4.638.044 1.934-.045 3.868-.235 5.802-.134 1.442-.323 2.873-.736 4.248-.324 1.084-.871 2.213-1.708 2.94l-.401.313-.38.212c-.223.101-.469.19-.725.235-.715.134-1.462-.011-2.165-.235-.224-.078-.458-.168-.692-.268z" fill="url(#aE)"/><path d="m229.486 214.891c.123.425.301.827.524 1.207.424.749 1.016 1.42 1.228 2.247.402 1.509-.525 3.018-1.406 4.292-2.188 3.209-4.386 6.406-6.574 9.614.491-3.466.67-6.975-.111-10.273.759-.738 1.428-1.587 1.953-2.526.044-.101.1-.179.1-.291s-.067-.224-.123-.313c-.714-1.196-.736-3.722-.669-5.097.435-.738.87-1.465 1.317-2.202.223.1.468.178.703.257.692.223 1.451.369 2.165.234.257-.044.491-.134.725-.234-.212 1.028-.145 2.09.168 3.085z" fill="url(#aF)"/><path d="m229.531 189.628c-.034.112-.067.224-.112.324-.547 1.263-1.987 2.012-3.337 2.426-1.518.469-3.181.738-4.375 1.766-.96.827-1.495 2.046-2.21 3.096-.703 1.062-1.763 2.046-3.024 2.024-.491 0-.96-.168-1.451-.202-.491-.033-1.038.123-1.272.548-.112.224-.134.47-.156.704-.101 1.778.156 3.544.167 5.332.011.716-.034 1.454-.268 2.135-.223.682-.681 1.319-1.328 1.632.112-1.028-.335-2.045-.937-2.884-.603-.849-1.351-1.576-1.998-2.38-.368-.481-.714-.995-.926-1.554-.335-.872-.335-1.8-.213-2.739.134-1.04.425-2.09.581-3.119.469-2.917-.011-6.125 1.562-8.629.625-1.006 1.563-1.8 2.634-2.269.156-.068.29-.123.447-.168v-.011c.033-.012.055-.023.089-.034 1.897-.637 4.006-.413 6.015-.659 2.299-.291 4.688-1.196 6.83-.325 1.764.716 2.869 2.482 3.627 4.226.146.302.157.816-.189.816z" fill="url(#aG)"/><path d="m221.283 269.866c3.203-1.04 6.395-2.236 9.598-1.465-8.716 8.574-12.143 21.183-19.631 30.841-.592-.19-1.15-.492-1.63-.894l.034-.034c2.812-4.56 4.888-9.568 6.149-14.766 1.161-4.829 1.842-10.217 5.525-13.548z" fill="url(#aH)"/><path d="m225.714 211.549c-.436.737-.871 1.464-1.317 2.202-.949 1.587-1.909 3.197-2.612 4.907-.033.101-.078.179-.112.28-.468 1.196-.814 2.436-1.004 3.722l-.245.033c-1.641-3.8-1.05-8.204-2.065-12.217-.38-1.532-1.016-3.086-.781-4.651 2.712 1.923 5.089 4.494 8.136 5.724z" fill="url(#aI)"/><path d="m225.2 219.172c0 .101-.055.19-.1.291-.525.939-1.194 1.788-1.953 2.526-.257-1.106-.614-2.18-1.127-3.219l-.224-.101c.703-1.721 1.652-3.32 2.612-4.907-.067 1.386-.045 3.912.67 5.097.055.09.122.201.122.313z" fill="url(#aJ)"/><path d="m223.258 232.262c-.201 1.476-.457 2.94-.725 4.382l-.837 4.628c-.168.86-.324 1.755-.703 2.537-1.808 3.689-7.411 3.79-9.754 7.165-.726 1.04-1.05 2.303-1.608 3.443-.089.179-.178.358-.279.548-.613 1.073-1.428 2.035-2.399 2.806-2.254-.291-4.565-.347-6.819-.514-4.386-.313-8.75-1.085-12.979-2.314 1.886-2.303 4.921-3.577 7.89-4.192 3.46-.738 7.053-.794 10.457-1.8.558-.168 1.139-.369 1.551-.794.581-.592.704-1.497.715-2.336.044-3.063-1.027-6.137-2.98-8.495-.837-1.029-1.864-1.99-2.299-3.208.201-.112.402-.246.591-.38 2.645-1.867 4.308-4.852 5.335-7.915 1.083-3.23 1.529-6.751 1.016-10.116-.134-.894-.335-1.777-.625-2.638.134-.034.279-.112.379-.19.201-.145.402-.302.592-.447.178-.134.346-.269.524-.403l.223.302c1.73 1.498 2.344 3.89 2.59 6.148.68 6.193-.759 12.453-.067 18.646.122.994.524 2.235 1.54 2.313.424.023.837-.178 1.171-.424 1.429-.984 2.311-2.605 2.791-4.282.491-1.654.625-3.398.859-5.119.324-2.325.837-4.628 1.395-6.92l-.123-.033c.201-1.274.536-2.526 1.005-3.711.033-.101.078-.179.111-.28l.223.101c.503 1.039.871 2.112 1.128 3.219.77 3.287.591 6.797.111 10.273z" fill="url(#aK)"/><path d="m216.462 309.492-.012.168c-1.238-.056-2.477-.134-3.716-.212-1.998-.134-4.051-.291-5.848-1.174-.413-.201-.859-.503-.915-.961-.034-.324.123-.615.279-.906.391-.737.736-1.498 1.015-2.28.637-.034 1.284.168 1.864.447 1.328.671 2.366 1.789 3.46 2.806 1.116 1.006 2.377 1.956 3.873 2.112z" fill="url(#aL)"/><path d="m206.953 257.771c2.355.29 4.632.86 6.663 2.068 1.004.603 1.975 1.397 2.433 2.492.457 1.085.368 2.326.1 3.466-.435 1.844-1.317 3.532-2.299 5.153-.156.235-.301.492-.457.726-5.759 9.122-13.627 16.891-18.448 26.56-.614 1.241-1.195 2.526-1.373 3.901-.536-.067-1.139.067-1.652.235-3.315 1.107-6.417 3.219-9.899 3.175l-.067-.023c.301-.928.614-1.844.915-2.772.681-2.079 1.373-4.158 2.054-6.237 2.008-6.093 4.051-12.241 7.343-17.74 1.004-1.655 2.109-3.253 3.359-4.718.011-.011.011-.011.011-.011 1.395-1.654 2.958-3.141 4.721-4.393 1.194-.849 2.601-1.609 4.029-1.464-1.841-2.191-4.877-3.119-7.745-3.208-3.002-.079-5.949.626-8.928 1.006-4.063.514-8.203.436-12.243-.246l-.313-.168c1.719-3.275 4.051-6.237 6.853-8.641 1.718-.167 3.404-.816 4.754-1.9l.056-.201c.1.033.212.067.312.089 4.23 1.23 8.583 2.001 12.98 2.314 2.276.19 4.587.235 6.841.537z" fill="url(#aM)"/><path d="m213.404 185.604c-.034.011-.056.022-.09.033v.012c-.156.044-.29.1-.446.167-1.071.47-2.009 1.263-2.634 2.269-1.573 2.493-1.093 5.713-1.562 8.63-.168 1.028-.447 2.079-.581 3.119l-.223.011c-.145.838-.457 1.766-1.25 2.09-.547.224-1.16.09-1.741.034-.915-.067-1.819.1-2.734.134s-1.886-.101-2.589-.682c-.458-.369-.759-.894-.971-1.453-1.005-2.627-.123-5.768-1.462-8.25-.357-.67-.871-1.24-1.228-1.911-.77-1.442-.781-3.208-.335-4.784.346-1.174.949-2.325 1.965-3.019 1.819-1.218 4.241-.626 6.417-.871 1.652-.179 3.348-.883 4.944-.392 1.194.369 2.098 1.353 2.924 2.303.669.749 1.35 1.554 1.585 2.538z" fill="url(#aN)"/><path d="m208.415 225.823c-1.027 3.063-2.69 6.048-5.335 7.914-.189.134-.39.269-.591.38-.045-.167-.09-.335-.134-.514-.301-1.621.524-3.61-.625-4.784-2.69 1.677-5.257 3.577-7.656 5.645-3.092 2.649-5.926 5.6-8.449 8.808.168-.234.335-.48.48-.726.313-.492.592-.995.849-1.498.267-.514.502-1.04.736-1.576.235-.526.458-1.062.67-1.61.111-.268.212-.536.323-.805.949-2.392 1.898-4.784 2.991-7.109v-.011l.067.044c3.259-4.001 6.83-7.746 10.658-11.211 1.976-1.778 4.442-3.589 7.031-3.063.514 3.364.067 6.886-1.015 10.116z" fill="url(#aO)"/><path d="m206.094 315.316c.881.347 1.964.872 1.942 1.822-.012.705-.659 1.219-1.273 1.543-2.131 1.14-4.631 1.386-7.031 1.319-2.5-.067-5-.425-7.477-.794-1.339-.201-2.69-.391-4.04-.592l.078-.548c3.359-1.397 7.087-1.9 10.714-1.442 1.294.157 2.6.447 3.895.28 1.149-.146 2.31-.738 2.857-1.733.1.045.223.09.335.145z" fill="url(#aP)"/><path d="m184.755 244.379c.045-.056.089-.1.123-.156.167-.179.324-.369.469-.57.1-.123.189-.257.279-.392 2.522-3.208 5.357-6.159 8.448-8.808 2.522 1.531 5.87 1.196 8.426-.347.424 1.219 1.462 2.18 2.299 3.209 1.953 2.369 3.025 5.432 2.98 8.506-.011.827-.134 1.733-.714 2.337-.413.424-.994.614-1.552.793-3.404 1.006-6.997 1.062-10.457 1.789-2.957.614-5.993 1.9-7.879 4.192-.101-.023-.212-.056-.313-.09l-.055.201c-1.351 1.073-3.025 1.733-4.755 1.901-.569.056-1.149.067-1.73.011-1.272-.123-2.499-.514-3.761-.805-1.975-.436-4.04-.592-6.06-.447-.256.022-.558.022-.747-.145 0-.012 0-.012 0-.012-.034-.022-.056-.044-.09-.089-.145-.235-.033-.548.101-.794 1.239-2.302 3.906-3.353 6.361-4.247 2.266-.839 4.71-1.845 6.004-3.835.971-.559 1.864-1.33 2.623-2.202z" fill="url(#aQ)"/><path d="m193.594 302.137c.324.045.625.168.871.425.959.984-.101 2.56-.168 3.935-.1 1.866 1.685 3.208 3.27 4.203 2.645 1.654 5.301 3.309 8.192 4.471-.547 1.006-1.708 1.587-2.857 1.733-1.295.167-2.601-.112-3.895-.28-3.616-.458-7.344.045-10.714 1.442l-.078.548c-1.886-.268-3.772-.548-5.658-.816-.425-.291-.648-.816-.882-1.308-.491-1.051-1.138-2.023-1.909-2.884-.524-.581-1.16-1.14-1.941-1.162l-.101-.023c.357-1.397.48-2.895.726-4.337.39-2.314 1.462-4.863 3.716-5.567l.737.246c-.302.928-.614 1.845-.916 2.772l.067.023c3.482.044 6.585-2.068 9.9-3.175.502-.179 1.104-.313 1.64-.246z" fill="url(#aR)"/><path d="m204.42 268.189c-1.429-.157-2.835.615-4.029 1.464-1.764 1.252-3.326 2.75-4.721 4.393 0 0 0 0-.011.011-2.813 1.487-5.938 2.348-9.051 3.086-3.326.771-6.786 1.419-10.123.704-1.596-.347-3.114-.995-4.609-1.655.056-.223.089-.447.112-.681.457-3.466 1.551-6.841 3.191-9.927l.313.168c4.04.682 8.18.76 12.243.246 2.98-.38 5.926-1.084 8.928-1.006 2.879.078 5.915 1.006 7.757 3.197z" fill="url(#aS)"/><path d="m202.355 233.603c.033.179.089.358.134.515-2.556 1.531-5.904 1.878-8.426.346 2.41-2.068 4.966-3.968 7.667-5.645 1.149 1.174.324 3.164.625 4.784z" fill="url(#aT)"/><path d="m201.139 212.734v.011c-.023.089-.045.19-.067.268-.146.593-.335 1.174-.547 1.733 0 0 0 0-.011 0-1.306 3.42-3.784 6.327-5.77 9.456-1.161 1.834-2.165 3.756-3.069 5.735v.011c-1.094 2.325-2.043 4.717-2.991 7.109-.112.269-.212.537-.324.805-.212.537-.435 1.073-.67 1.61-.234.537-.468 1.062-.736 1.576s-.547 1.017-.848 1.498c-.146.246-.313.492-.48.727-.246.313-.514.637-.737.961-.045.045-.078.089-.134.156-.759.872-1.652 1.632-2.656 2.214-.871.514-1.819.849-2.812.995-.815.1-1.697.067-2.389-.392-.268-.179-.491-.402-.647-.67 1.004-3.689 2.634-7.233 4.754-10.407 3.929-5.824 9.643-10.519 12.299-17.025.123-.324.234-.682.301-1.028l-.067-.011c-.156-.112-.301-.28-.457-.436-1.06-1.196-1.931-3.51-2.031-4.975l3.738.034 3.438.033c.502-.648.915-1.363 1.216-2.123.268-.693-.201-2.091.558-2.158.335.224.603.503.793.839.569.961.58 2.28.346 3.454z" fill="url(#aU)"/><path d="m199.442 210.598c-.301.76-.714 1.465-1.216 2.124l-3.438-.033c-1.038-.425-1.975-1.118-2.701-1.979-.256-.313-.513-.659-.591-1.073-.045-.235-.022-.492.089-.727.078-.145.168-.268.302-.368.223-.146.491-.179.758-.213.491-.056.971-.1 1.462-.156 1.116-.112 2.299-.235 3.36.123 1.004.346 1.908 1.24 1.975 2.302z" fill="url(#aV)"/><path d="m193.538 218.054.056.011c-.056.358-.179.705-.301 1.029-2.645 6.517-8.359 11.201-12.288 17.024-2.131 3.175-3.75 6.707-4.754 10.407-.659-.972-.659-2.414-.458-3.633.86-5.186 3.616-9.881 6.92-13.972 3.203-3.991 6.953-7.501 10.368-11.313.145.179.301.336.457.447z" fill="url(#aW)"/><path d="m182.557 317.787c-1.161-.168-2.311-.335-3.471-.503-.871-.123-1.786-.291-2.411-.906-.201-.201-.368-.48-.357-.76.011-.279.201-.536.357-.771.502-.749.815-1.565 1.038-2.437l.1.023c.782.022 1.418.581 1.942 1.162.77.872 1.418 1.844 1.909 2.884.245.492.48 1.028.893 1.308z" fill="url(#aX)"/><path d="m171.876 276.193c-.045.257-.123.503-.268.726-.257.425-.77.716-1.228.548-.357-.123-.558-.47-.736-.805-.681-1.297-1.094-2.728-1.239-4.181-.524.269-1.194.012-1.585-.447-.368-.469-.513-1.073-.613-1.654-.882-5.142.424-10.608 3.504-14.811.19.167.491.167.748.145 2.031-.145 4.084.011 6.06.447 1.261.291 2.488.682 3.761.805.58.056 1.16.045 1.73-.011-2.802 2.403-5.134 5.354-6.853 8.641-1.64 3.085-2.734 6.461-3.192 9.926 0 .223-.033.447-.089.671z" fill="url(#aY)"/><path d="m163.015 212.454c.491-.615.591-1.52.502-2.314-.045-.414-.123-.816-.29-1.185-.168-.358-.424-.682-.748-.928l-17.187-.48c1.395-9.245 8.002-16.242 15.959-16.242.447 0 .882.022 1.328.078 8.36.816 14.922 9.378 14.922 19.819 0 10.452-6.574 19.014-14.922 19.83-.435.056-.87.078-1.328.078-8.671 0-15.758-8.327-16.216-18.801z" fill="url(#aZ)"/><path d="m163.528 210.129c.089.794-.022 1.71-.502 2.314l-17.979-.134-12.478-.101v-.302c.48 0 1.005-.268 1.261-.682.436-.704.346-1.598.168-2.414-.156-.615-.38-1.263-.926-1.587-.012-.012-.023-.023-.034-.023l12.276.347 17.187.48c.313.235.569.559.748.928.145.369.223.76.279 1.174z" fill="url(#a0)"/><path d="m267.543 216.355c-.034.078-.079.157-.146.213-.1.089-.234.1-.357.1-.692.034-1.395.034-2.075.011.044-.547.078-1.095.078-1.654 0-1.118-.101-2.202-.279-3.264l.156-.022h2.143c.111 0 .245 0 .346.078.044.044.089.112.111.179.636 1.352.636 2.984.023 4.359z" fill="url(#a1)"/><path d="m248.358 213.549c.033.392-.023.794-.201 1.141-.034.067-.078.134-.123.19h-18.548c-.313-.995-.38-2.057-.179-3.086.29-.134.547-.313.781-.525h16.707c.157 0 .324.101.458.201.636.514 1.038 1.286 1.105 2.079z" fill="url(#a2)"/><path d="m194.788 212.689-3.727-.034-10.893-.078c.034-.458.045-.917.045-1.375 0-.917-.056-1.822-.168-2.694l10.993.302.547.1c-.1.224-.134.492-.089.727.078.402.324.749.58 1.073.726.861 1.674 1.543 2.712 1.979z" fill="url(#a3)"/><path d="m265.042 215.014c0 .559-.033 1.118-.078 1.654-.725 8.473-6.997 14.867-14.609 14.867 6.965-.682 12.444-7.813 12.444-16.521s-5.479-15.851-12.444-16.522c7.132 0 13.092 5.567 14.408 13.258.179 1.062.279 2.146.279 3.264z" fill="url(#a5)"/><path d="m180.045 208.508c.101.872.168 1.789.168 2.694 0 .458-.011.917-.045 1.375-.614 10.474-8.259 18.455-17.577 18.455 8.359-.816 14.921-9.378 14.921-19.83 0-10.44-6.573-19.003-14.921-19.819 8.906 0 16.305 7.299 17.454 17.125z" fill="url(#a6)"/><path d="m133.976 208.81c.178.816.279 1.71-.168 2.415-.257.424-.781.681-1.261.681-.324 0-.614-.123-.815-.38-.201-.268-.245-.614-.268-.95-.078-1.14.112-2.303.536-3.376.022-.011.045-.022.067-.022l.938.022c.022 0 .033.012.033.023.558.324.781.983.938 1.587z" fill="url(#a7)"/></g></svg>